<?xml version="1.0" encoding="UTF-8"?>
<!DOCTYPE svg PUBLIC "-//W3C//DTD SVG 1.1//EN" "http://www.w3.org/Graphics/SVG/1.1/DTD/svg11.dtd">
<!-- Creator: CorelDRAW -->
<svg xmlns="http://www.w3.org/2000/svg" xml:space="preserve" width="63mm" height="63.0002mm" version="1.1" style="shape-rendering:geometricPrecision; text-rendering:geometricPrecision; image-rendering:optimizeQuality; fill-rule:evenodd; clip-rule:evenodd"
viewBox="0 0 80.29 80.29"
 xmlns:xlink="http://www.w3.org/1999/xlink"
 xmlns:xodm="http://www.corel.com/coreldraw/odm/2003">
 <defs>
  <style type="text/css">
   <![CDATA[
    .fil0 {fill:#FFED00}
    .fil1 {fill:#393185}
   ]]>
  </style>
 </defs>
 <g id="Layer_x0020_1">
  <metadata id="CorelCorpID_0Corel-Layer"/>
  <path class="fil0" d="M42.33 42.06l3.82 0 0 -3.82 3.82 0 0 -3.82 3.82 0 0 -3.82 -3.82 0 0 -3.82 -3.82 0 0 -3.82 -3.82 0 0 -3.82 -3.82 0 0 3.82 -3.82 0 0 3 0 0.83 -3.82 0 0 3.82 -3.82 0 0 3.82 3.82 0 0 3.82 3.82 0 0 0 0 3.82 3.82 0 0 3.82 3.82 0 0 -3.82zm-3.82 -11.79l3.82 0 0 -3.51 -3.82 0 0 3.51zm4.14 0.32l0 3.82 3.5 0 0 -3.82 -3.5 0zm-0.32 4.14l-3.82 0 0 3.5 3.82 0 0 -3.5zm-4.14 -0.32l0 -3.82 -3.5 0 0 3.82 0 0 3.5 0z"/>
  <rect class="fil1" x="38.51" y="49.71" width="3.82" height="3.82"/>
  <rect class="fil1" x="38.51" y="68.82" width="3.82" height="3.82"/>
  <rect class="fil1" x="7.65" y="42.06" width="3.82" height="3.82"/>
  <polygon class="fil0" points="3.83,61.17 7.65,61.17 7.65,65 11.47,65 11.47,68.82 7.65,68.82 7.65,72.64 3.83,72.64 3.83,68.82 -0,68.82 -0,65 3.83,65 "/>
  <polygon class="fil1" points="61.18,45.88 65.01,45.88 65.01,49.71 68.82,49.71 68.82,53.54 65.01,53.54 65.01,57.35 61.18,57.35 61.18,53.54 57.35,53.54 57.35,49.71 61.18,49.71 "/>
  <polygon class="fil1" points="15.3,45.88 19.12,45.88 19.12,49.71 22.94,49.71 22.94,53.54 19.12,53.54 19.12,57.35 15.3,57.35 15.3,53.54 11.47,53.54 11.47,49.71 15.3,49.71 "/>
  <polygon class="fil0" points="26.77,11.47 30.59,11.47 30.59,15.3 34.41,15.3 34.41,19.12 30.59,19.12 30.59,22.94 26.77,22.94 26.77,19.12 22.94,19.12 22.94,15.3 26.77,15.3 "/>
  <polygon class="fil1" points="38.24,0 42.07,0 42.07,3.83 45.88,3.83 45.88,7.65 42.07,7.65 42.07,11.47 38.24,11.47 38.24,7.65 34.41,7.65 34.41,3.83 38.24,3.83 "/>
  <polygon class="fil0" points="49.71,11.47 53.54,11.47 53.54,15.3 57.35,15.3 57.35,19.12 53.54,19.12 53.54,22.94 49.71,22.94 49.71,19.12 45.88,19.12 45.88,15.3 49.71,15.3 "/>
  <polygon class="fil0" points="72.65,68.82 76.48,68.82 76.48,72.65 80.29,72.65 80.29,76.48 76.48,76.48 76.48,80.29 72.65,80.29 72.65,76.48 68.82,76.48 68.82,72.65 72.65,72.65 "/>
  <polygon class="fil0" points="50.84,68.82 53.77,68.82 53.77,72.65 49.94,72.65 49.94,69.72 49.05,68.83 46.11,68.83 46.11,65.89 45.22,65 42.33,65 42.33,62.11 41.4,61.18 39.4,61.18 38.51,62.08 38.51,65 35.58,65 34.69,65.89 34.69,68.83 31.75,68.83 30.86,69.72 30.86,72.65 27.04,72.65 27.04,68.82 29.96,68.82 30.85,67.93 30.85,64.99 33.79,64.99 34.68,64.1 34.68,61.18 37.6,61.18 38.5,60.28 38.5,57.35 42.34,57.35 42.34,60.32 43.2,61.18 46.15,61.18 46.15,64.13 47.01,64.99 49.95,64.99 49.95,67.93 "/>
  <polygon class="fil1" points="15.55,68.83 19.39,68.83 19.39,65.89 20.28,65 23.21,65 23.21,62.08 24.1,61.18 27.04,61.18 27.04,58.25 27.93,57.35 30.85,57.35 30.85,54.43 31.75,53.54 34.68,53.54 34.68,49.7 31.75,49.7 30.85,48.8 30.85,45.88 27.93,45.88 27.04,44.99 27.04,42.05 24.1,42.05 23.21,41.16 23.21,38.24 20.28,38.24 19.39,37.34 19.39,34.41 16.45,34.41 15.56,33.51 15.56,30.59 11.74,30.59 11.74,34.41 14.66,34.41 15.55,35.31 15.55,38.24 18.49,38.24 19.38,39.14 19.38,42.06 22.3,42.06 23.2,42.95 23.2,45.89 26.13,45.89 27.03,46.78 27.03,49.71 29.95,49.71 30.85,50.6 30.85,52.63 29.95,53.53 27.03,53.53 27.03,56.45 26.13,57.35 23.2,57.35 23.2,60.28 22.3,61.18 19.38,61.18 19.38,64.1 18.49,64.99 15.55,64.99 "/>
  <polygon class="fil1" points="65.01,68.83 61.17,68.83 61.17,65.89 60.28,65 57.35,65 57.35,62.08 56.46,61.18 53.52,61.18 53.52,58.25 52.63,57.35 49.71,57.35 49.71,54.43 48.81,53.54 45.88,53.54 45.88,49.7 48.81,49.7 49.71,48.8 49.71,45.88 52.63,45.88 53.52,44.99 53.52,42.05 56.46,42.05 57.35,41.16 57.35,38.24 60.28,38.24 61.17,37.34 61.17,34.41 64.11,34.41 65,33.51 65,30.59 68.82,30.59 68.82,34.41 65.9,34.41 65.01,35.31 65.01,38.24 62.07,38.24 61.18,39.14 61.18,42.06 58.25,42.06 57.36,42.95 57.36,45.89 54.42,45.89 53.53,46.78 53.53,49.71 50.61,49.71 49.71,50.6 49.71,52.63 50.61,53.53 53.53,53.53 53.53,56.45 54.42,57.35 57.36,57.35 57.36,60.28 58.25,61.18 61.18,61.18 61.18,64.1 62.07,64.99 65.01,64.99 "/>
 </g>
</svg>
