<?xml version="1.0" encoding="UTF-8"?>
<!DOCTYPE svg PUBLIC "-//W3C//DTD SVG 1.1//EN" "http://www.w3.org/Graphics/SVG/1.1/DTD/svg11.dtd">
<!-- Creator: CorelDRAW -->
<svg xmlns="http://www.w3.org/2000/svg" xml:space="preserve" width="47.711mm" height="38.9165mm" version="1.1" style="shape-rendering:geometricPrecision; text-rendering:geometricPrecision; image-rendering:optimizeQuality; fill-rule:evenodd; clip-rule:evenodd"
viewBox="0 0 56.41 46.01"
 xmlns:xlink="http://www.w3.org/1999/xlink"
 xmlns:xodm="http://www.corel.com/coreldraw/odm/2003">
 <defs>
  <style type="text/css">
   <![CDATA[
    .str0 {stroke:#00A0E3;stroke-width:1.77;stroke-miterlimit:22.9256}
    .fil0 {fill:none}
    .fil1 {fill:#00A0E3}
   ]]>
  </style>
 </defs>
 <g id="Layer_x0020_1">
  <metadata id="CorelCorpID_0Corel-Layer"/>
  <path class="fil0 str0" d="M49.36 38.23c3.84,-2.25 6.16,-6.13 6.16,-10.3 0,-6.76 -5.99,-12.24 -13.38,-12.24 -1.39,0 -2.72,0.19 -3.98,0.55 0.02,0.33 0.03,0.66 0.03,0.99 0,5.91 -3.58,11.09 -8.95,13.96 1.56,5.18 6.74,8.98 12.9,8.98 0.83,0 1.66,-0.07 2.47,-0.21l5.14 4.11 -0.4 -5.83z"/>
  <path class="fil0 str0" d="M12.29 32.28c2.3,0.85 4.76,1.29 7.26,1.29 10.3,0 18.66,-7.32 18.66,-16.34 0,-9.02 -8.35,-16.34 -18.66,-16.34 -10.3,0 -18.66,7.32 -18.66,16.34 0,4.22 1.87,8.28 5.21,11.32l-1.86 7.49 8.06 -3.76z"/>
  <circle class="fil1" cx="11.18" cy="17.62" r="2.36"/>
  <circle class="fil1" cx="19.43" cy="17.62" r="2.36"/>
  <circle class="fil1" cx="27.37" cy="17.62" r="2.36"/>
  <circle class="fil1" cx="47.78" cy="28.68" r="1.77"/>
  <circle class="fil1" cx="41.65" cy="28.68" r="1.77"/>
  <circle class="fil1" cx="35.92" cy="28.68" r="1.77"/>
 </g>
</svg>
