<?xml version="1.0" encoding="UTF-8"?>
<!DOCTYPE svg PUBLIC "-//W3C//DTD SVG 1.1//EN" "http://www.w3.org/Graphics/SVG/1.1/DTD/svg11.dtd">
<!-- Creator: CorelDRAW -->
<svg xmlns="http://www.w3.org/2000/svg" xml:space="preserve" width="60.2mm" height="60.2mm" version="1.1" style="shape-rendering:geometricPrecision; text-rendering:geometricPrecision; image-rendering:optimizeQuality; fill-rule:evenodd; clip-rule:evenodd"
viewBox="0 0 78.57 78.57"
 xmlns:xlink="http://www.w3.org/1999/xlink"
 xmlns:xodm="http://www.corel.com/coreldraw/odm/2003">
 <defs>
  <style type="text/css">
   <![CDATA[
    .str0 {stroke:#00A0E3;stroke-width:1.31;stroke-miterlimit:22.9256}
    .str2 {stroke:#00A0E3;stroke-width:0.98;stroke-miterlimit:22.9256}
    .str3 {stroke:#FFED00;stroke-width:0.65;stroke-miterlimit:22.9256}
    .str1 {stroke:#00A0E3;stroke-width:0.65;stroke-miterlimit:22.9256}
    .str4 {stroke:#00A0E3;stroke-width:0.26;stroke-miterlimit:22.9256}
    .fil0 {fill:none}
   ]]>
  </style>
 </defs>
 <g id="Layer_x0020_1">
  <metadata id="CorelCorpID_0Corel-Layer"/>
  <path class="fil0 str0" d="M12.98 14.15l48.54 0m0 0c1.64,0 2.98,1.34 2.98,2.98m0 0l0 15.36m-18.8 23.37l-32.73 0m0 0c-1.64,0 -2.98,-1.34 -2.98,-2.98m0 0l0 -35.75m0 0c0,-1.64 1.34,-2.98 2.98,-2.98"/>
  <path class="fil0 str1" d="M38.71 45.95l-23.61 0c-1.12,0 -2.04,-0.92 -2.04,-2.04l0 -24.49c0,-1.12 0.92,-2.04 2.04,-2.04l44.16 0c1.12,0 2.04,0.92 2.04,2.04l0 12.73"/>
  <path class="fil0 str0" d="M57.55 30.55c1.14,0.3 2.21,0.75 3.21,1.33l1.57 -1.57c0.25,-0.25 0.67,-0.25 0.92,0l3.81 3.81c0.25,0.25 0.25,0.67 0,0.92l-1.57 1.57c0.58,0.99 1.03,2.07 1.33,3.21l2.23 0c0.36,0 0.65,0.29 0.65,0.65l0 5.39c0,0.36 -0.29,0.65 -0.65,0.65l-2.23 0c-0.3,1.14 -0.75,2.21 -1.33,3.21l1.57 1.57c0.25,0.25 0.25,0.67 0,0.92l-3.81 3.81c-0.25,0.25 -0.67,0.25 -0.92,0l-1.57 -1.57c-0.99,0.58 -2.07,1.03 -3.21,1.33l0 2.23c0,0.36 -0.29,0.65 -0.65,0.65l-5.39 0c-0.36,0 -0.65,-0.29 -0.65,-0.65l0 -2.23c-1.14,-0.3 -2.21,-0.75 -3.21,-1.33l-1.57 1.57c-0.25,0.25 -0.67,0.25 -0.92,0l-3.81 -3.81c-0.25,-0.25 -0.25,-0.67 0,-0.92l1.57 -1.57c-0.58,-0.99 -1.03,-2.07 -1.33,-3.21l-2.23 0c-0.36,0 -0.65,-0.29 -0.65,-0.65l0 -5.39c0,-0.36 0.29,-0.65 0.65,-0.65l2.23 0c0.3,-1.14 0.75,-2.21 1.33,-3.21l-1.57 -1.57c-0.25,-0.25 -0.25,-0.67 0,-0.92l3.81 -3.81c0.25,-0.25 0.67,-0.25 0.92,0l1.57 1.57c0.99,-0.58 2.07,-1.03 3.21,-1.33l0 -2.23c0,-0.36 0.29,-0.65 0.65,-0.65l5.39 0c0.36,0 0.65,0.29 0.65,0.65l0 2.23z"/>
  <circle class="fil0 str0" cx="54.21" cy="43.17" r="5.81"/>
  <path class="fil0 str2" d="M31.11 55.73c-0.62,5.37 -0.03,7.58 -5.97,9.63l12.11 0.09 12.11 -0.09c-5.94,-2.05 -5.35,-4.26 -5.97,-9.63"/>
  <line class="fil0 str1" x1="29.85" y1="62.3" x2="44.65" y2= "62.3" />
  <line class="fil0 str3" x1="20.42" y1="41.14" x2="29.43" y2= "41.14" />
  <path class="fil0 str3" d="M20.16 23.96l7.1 0m2.08 1.05l2.67 3.61 8.81 0"/>
  <polyline class="fil0 str3" points="17.52,29.77 26.84,29.77 29.97,34.75 37.1,34.75 "/>
  <line class="fil0 str3" x1="17.45" y1="35.84" x2="27.04" y2= "35.84" />
  <line class="fil0 str3" x1="29.97" y1="34.75" x2="28.56" y2= "37.46" />
  <line class="fil0 str3" x1="48.59" y1="21.6" x2="57.37" y2= "21.6" />
  <circle class="fil0 str1" cx="19.11" cy="41.14" r="1.31"/>
  <circle class="fil0 str3" cx="30.73" cy="41.14" r="1.31"/>
  <circle class="fil0 str1" cx="18.86" cy="23.96" r="1.31"/>
  <circle class="fil0 str1" cx="28.56" cy="23.96" r="1.31"/>
  <line class="fil0 str0" x1="10" y1="48.47" x2="42.28" y2= "48.47" />
  <rect class="fil0 str4" x="0.13" y="0.13" width="78.31" height="78.31" rx="7.92" ry="8.3"/>
 </g>
</svg>
