<?xml version="1.0" encoding="UTF-8"?>
<!DOCTYPE svg PUBLIC "-//W3C//DTD SVG 1.1//EN" "http://www.w3.org/Graphics/SVG/1.1/DTD/svg11.dtd">
<!-- Creator: CorelDRAW -->
<svg xmlns="http://www.w3.org/2000/svg" xml:space="preserve" width="60.2mm" height="60.2mm" version="1.1" style="shape-rendering:geometricPrecision; text-rendering:geometricPrecision; image-rendering:optimizeQuality; fill-rule:evenodd; clip-rule:evenodd"
viewBox="0 0 84.25 84.25"
 xmlns:xlink="http://www.w3.org/1999/xlink"
 xmlns:xodm="http://www.corel.com/coreldraw/odm/2003">
 <defs>
  <style type="text/css">
   <![CDATA[
    .str1 {stroke:#FFED00;stroke-width:1.4;stroke-miterlimit:22.9256}
    .str0 {stroke:#00A0E3;stroke-width:1.05;stroke-miterlimit:22.9256}
    .str2 {stroke:#00A0E3;stroke-width:0.28;stroke-miterlimit:22.9256}
    .fil0 {fill:none}
    .fil1 {fill:#FFED00}
   ]]>
  </style>
 </defs>
 <g id="Layer_x0020_1">
  <metadata id="CorelCorpID_0Corel-Layer"/>
  <g id="_2064144109872">
   <path class="fil0 str0" d="M42.13 8.73c8.29,4.09 16.01,7.69 24.53,11.27l0.17 22.54c-2.27,16.53 -13.95,28.27 -24.7,32.98 -10.75,-4.72 -22.43,-16.45 -24.7,-32.98l0.17 -22.54c8.52,-3.58 16.25,-7.18 24.53,-11.27z"/>
   <path class="fil0 str0" d="M42.13 14.48c6.86,3.39 13.25,6.37 20.3,9.33l0.14 18.66c-1.88,13.68 -11.55,23.4 -20.44,27.3 -8.89,-3.9 -18.56,-13.62 -20.44,-27.3l0.14 -18.66c7.05,-2.96 13.45,-5.94 20.3,-9.33z"/>
   <path class="fil0 str1" d="M34.25 37.54l0.65 0 0 -3.86c0,-3.86 3.13,-7 7,-7 3.86,0 7,3.13 7,7l0 3.86 0.65 0c1.22,0 2.23,1 2.23,2.23l0 12.4c0,1.22 -1,2.23 -2.23,2.23l-15.3 0c-1.22,0 -2.23,-1 -2.23,-2.23l0 -12.4c0,-1.22 1,-2.23 2.23,-2.23z"/>
   <line class="fil0 str1" x1="34.9" y1="37.54" x2="48.9" y2= "37.54" />
   <path class="fil1" d="M41.9 42.14c1.02,0 1.85,0.94 1.85,2.1 0,0.67 -0.28,1.27 -0.71,1.65l0 3.95 -2.29 0 0 -3.95c-0.43,-0.38 -0.71,-0.98 -0.71,-1.65 0,-1.16 0.83,-2.1 1.85,-2.1z"/>
  </g>
  <rect class="fil0 str2" x="0.14" y="0.14" width="83.97" height="83.97" rx="8.49" ry="8.9"/>
 </g>
</svg>
