<?xml version="1.0" encoding="UTF-8"?>
<!DOCTYPE svg PUBLIC "-//W3C//DTD SVG 1.1//EN" "http://www.w3.org/Graphics/SVG/1.1/DTD/svg11.dtd">
<!-- Creator: CorelDRAW -->
<svg xmlns="http://www.w3.org/2000/svg" xml:space="preserve" width="130mm" height="100mm" version="1.1" style="shape-rendering:geometricPrecision; text-rendering:geometricPrecision; image-rendering:optimizeQuality; fill-rule:evenodd; clip-rule:evenodd"
viewBox="0 0 628.47 483.44"
 xmlns:xlink="http://www.w3.org/1999/xlink"
 xmlns:xodm="http://www.corel.com/coreldraw/odm/2003">
 <defs>
  <style type="text/css">
   <![CDATA[
    .str1 {stroke:#FFED00;stroke-width:4.83;stroke-miterlimit:22.9256}
    .str3 {stroke:#00A0E3;stroke-width:4.83;stroke-miterlimit:22.9256}
    .str4 {stroke:#00A0E3;stroke-width:2.42;stroke-miterlimit:22.9256}
    .str2 {stroke:#FFED00;stroke-width:7.25;stroke-miterlimit:22.9256}
    .str0 {stroke:#00A0E3;stroke-width:7.25;stroke-miterlimit:22.9256}
    .fil0 {fill:none}
   ]]>
  </style>
 </defs>
 <g id="Layer_x0020_1">
  <metadata id="CorelCorpID_0Corel-Layer"/>
  <g id="_2063576390416">
   <path class="fil0 str0" d="M334.14 408.97c95.26,-35.95 148.47,-112.64 131.56,-286.04 -63.02,-17.71 -96.08,-32.39 -143.81,-52.19m-16.78 0c-47.73,19.8 -80.79,34.48 -143.81,52.19 -17.5,173.3 35.48,249.98 130.34,286.04"/>
   <path class="fil0 str1" d="M292.86 113.78c-30.43,12.67 -55.6,22.95 -98.54,35.01 -0.71,18.77 -0.5,36.13 0.59,52.18m6.45 47.17c5.43,24.93 13.76,45.77 24.74,63.26l0.07 -0.04 0.07 -0.04 0.02 -0.01 0.05 -0.03 0.07 -0.04 0.01 -0.01 0.11 -0.07 0.02 -0.01 0.07 -0.04 0.07 -0.04 0.07 -0.04 0.07 -0.04 0.02 -0.01 0.05 -0.03 0.07 -0.04 0.07 -0.04 0 0 0.07 -0.04 0.07 -0.04 0.01 -0.01 0.06 -0.03 0.07 -0.03 0.01 -0 0.14 -0.06 0.07 -0.03 0.08 -0.03 0 -0 0.07 -0.03 0.08 -0.03 0 -0 0.07 -0.03 0.08 -0.03 0.08 -0.03 0 -0 0.08 -0.03 0.08 -0.03 0.08 -0.03 0.01 -0 0.07 -0.02 0.08 -0.03 0.02 -0.01 0.09 -0.03 0.13 -0.04 0.04 -0.01 0.04 -0.01 0.08 -0.02 0.08 -0.02 0.01 -0 0.02 -0.01 0.18 -0.04 0.02 -0 0.01 -0 0.08 -0.02 0.08 -0.02 0.04 -0.01 0.04 -0.01 0.08 -0.02 0.08 -0.02 0.02 -0 0.07 -0.01 0.08 -0.01 0.07 -0.01 0.01 -0 0.03 -0 0.18 -0.02 0.01 -0 0.04 -0 0.17 -0.02 0.02 -0 0.01 -0 0.22 -0.02 0 -0 0.22 -0.01 0.01 -0 0.03 -0 0.09 -0 0.09 -0 0.03 -0 0.01 0 0.22 -0c5.01,0 9.08,4.06 9.08,9.08l-0 0.22 0 0.02 -0.01 0.17 -0 0.05 -0 0.04 -0.01 0.18 -0 0.01 -0 0.02 -0.02 0.18 -0 0.03 -0 0.03 -0.02 0.19 -0 0.02 -0.03 0.19 -0 0.03 -0 0.02 -0.03 0.17 -0.01 0.04 -0 0.01 -0.02 0.13 -0.01 0.08 -0.01 0.02 -0.03 0.16 -0.01 0.04 -0.02 0.09 -0.03 0.13 -0 0 -0.03 0.13 -0.02 0.09 -0.01 0.04 -0.04 0.13 -0.01 0.05 -0.01 0.02 -0.05 0.16 -0 0.01 -0 0.01 -0.04 0.11 -0.01 0.02 -0.04 0.1 -0.05 0.12 -0.01 0.02 -0.03 0.07 -0.01 0.03 -0.05 0.12 -0.03 0.07 -0.04 0.1 -0.03 0.07 -0.05 0.12 -0 0 -0.05 0.1 -0 0.01 -0.06 0.12 -0.02 0.03 -0.01 0.03 -0.07 0.14 -0.01 0.02 -0 0 -0.01 0.01 -0.08 0.14 -0.04 0.07 -0.07 0.11 -0 0 -0.05 0.08 -0.02 0.03 -0.07 0.11 -0.01 0.01 -0.06 0.1 -0.06 0.08 -0.02 0.02 -0.07 0.11 -0.01 0.01 -0.06 0.08 -0.01 0.01 -0.08 0.1 -0.01 0.02 -0.06 0.08 -0.02 0.03 -0.05 0.07 -0.08 0.1 -0.08 0.1 -0.08 0.1c-0.06,0.06 -0.11,0.13 -0.17,0.19l-0.09 0.09 -0.01 0.01 -0.07 0.08 -0.09 0.09 -0.09 0.09 -0.09 0.09 -0.09 0.08 -0.01 0.01c-0.09,0.09 -0.19,0.17 -0.28,0.25l-0 0 -0.1 0.08 -0.02 0.01 -0.08 0.07 -0.02 0.01 -0.08 0.06 -0.1 0.08c15.14,18.78 34.02,33 56.22,43.95m41.28 0c22.2,-10.95 41.09,-25.17 56.22,-43.95 -0.1,-0.08 -0.2,-0.16 -0.3,-0.24l-0.1 -0.08c-0.13,-0.11 -0.26,-0.23 -0.38,-0.34l-0.09 -0.09 -0.09 -0.09 -0.09 -0.09c-0.12,-0.12 -0.23,-0.25 -0.35,-0.38l-0.08 -0.1 -0 -0.01 -0.06 -0.08 -0.01 -0.02 -0.08 -0.1 -0.01 -0.01 -0.07 -0.09 -0.06 -0.08 -0.01 -0.02 -0.08 -0.1 -0.04 -0.06 -0.03 -0.05 -0.07 -0.11 -0.05 -0.08 -0.02 -0.03 -0.07 -0.1 -0 -0.01 -0.07 -0.11 -0.01 -0.02 -0.05 -0.08 -0 -0 -0.07 -0.11 -0 -0.01 -0.05 -0.09 -0.01 -0.02 -0.06 -0.11 -0 -0 -0.01 -0.02 -0.08 -0.16 -0.01 -0.01 -0.02 -0.03 -0.06 -0.12 -0 -0.01 -0.05 -0.1 -0 -0 -0.05 -0.12 -0.04 -0.1 -0.01 -0.03 -0.04 -0.1 -0.05 -0.12 -0.01 -0.03 -0.03 -0.07 -0.01 -0.02 -0.05 -0.12 -0.04 -0.1 -0.01 -0.02 -0.04 -0.11 -0 -0.01 -0 -0.01 -0.05 -0.16 -0.01 -0.02 -0.01 -0.05 -0.04 -0.13 -0.01 -0.04 -0.01 -0.03 -0.04 -0.16 -0 -0.02 -0 -0 -0.03 -0.13 -0.02 -0.09 -0.01 -0.04 -0.04 -0.16 -0 -0.02 -0.01 -0.08 -0.02 -0.13 -0 -0.01 -0.01 -0.04 -0.03 -0.17 -0 -0.02 -0 -0.03 -0.03 -0.19 -0 -0.02 -0.02 -0.19 -0 -0.03 -0 -0.03 -0.02 -0.18 -0 -0.02 -0 -0.01 -0.01 -0.18 -0 -0.04 -0 -0.05 -0.01 -0.17 0 -0.02 -0 -0.22c0,-5.01 4.06,-9.08 9.08,-9.08l0.22 0 0.01 0 0.03 0 0.09 0 0.09 0 0.03 0 0.01 0 0.22 0.01 0 0 0.22 0.02 0.01 0 0.02 0 0.17 0.02 0.04 0 0.01 0 0.18 0.03 0.02 0 0.01 0 0.07 0.01 0.08 0.01 0.07 0.01 0.02 0 0.08 0.02 0.08 0.02 0.04 0.01 0.04 0.01 0.08 0.02 0.08 0.02 0.01 0 0.01 0 0.2 0.05 0.01 0 0.01 0 0.16 0.04 0.04 0.01 0.04 0.01 0.14 0.04 0.02 0.01 0.02 0 0.06 0.02 0.08 0.03 0.07 0.02 0.01 0 0 0 0.15 0.05 0.01 0 0.05 0.02 0.03 0.01 0.14 0.05 0.02 0.01 0.02 0.01 0.06 0.02 0.08 0.03 0.07 0.03 0 0 0.08 0.03 0.07 0.03 0.07 0.03 0.07 0.03 0.07 0.03 0.02 0.01 0.05 0.02 0.07 0.04 0.07 0.04 0.18 0.1 0.01 0.01 0.02 0.01 0.07 0.04 0.07 0.04 0.03 0.01 0.04 0.03 0.07 0.04 0.07 0.04 0 0 0.07 0.04 0.11 0.07 0.01 0.01 0.02 0.01 0.14 0.09c10.98,-17.49 19.31,-38.33 24.74,-63.26m6.45 -47.17c1.09,-16.05 1.3,-33.41 0.59,-52.18 -48.54,-13.64 -74.38,-24.99 -110.79,-40.11"/>
   <circle class="fil0 str2" cx="313.5" cy="416.16" r="9.08"/>
   <circle class="fil0 str3" cx="313.5" cy="379.04" r="9.08"/>
   <circle class="fil0 str3" cx="197.31" cy="224.98" r="9.08"/>
   <circle class="fil0 str3" cx="429.69" cy="224.98" r="9.08"/>
   <polyline class="fil0 str0" points="259.03,244.39 293.45,277.48 367.48,200.47 "/>
   <circle class="fil0 str1" cx="395.85" cy="318.94" r="9.08"/>
   <circle class="fil0 str1" cx="231.15" cy="318.94" r="9.08"/>
   <circle class="fil0 str3" cx="313.5" cy="105.21" r="9.08"/>
   <circle class="fil0 str2" cx="313.5" cy="67.27" r="9.08"/>
   <polyline class="fil0 str3" points="140.31,221.75 114.12,221.75 88.64,191.41 66.75,185.67 "/>
   <polyline class="fil0 str3" points="142.46,244.97 107.3,244.97 87.92,221.75 66.04,221.75 "/>
   <line class="fil0 str3" x1="80.75" y1="254.56" x2="43.07" y2= "254.56" />
   <polyline class="fil0 str3" points="147.84,265.05 112.68,265.05 94.74,287.64 68.19,287.64 "/>
   <polyline class="fil0 str3" points="153.11,287.64 128.68,287.64 98.95,320.17 81.5,322.54 "/>
   <circle class="fil0 str1" cx="55.46" cy="182.96" r="4.83"/>
   <circle class="fil0 str1" cx="29.71" cy="254.56" r="4.83"/>
   <circle class="fil0 str1" cx="68.72" cy="324.33" r="4.83"/>
   <circle class="fil0 str4" cx="57.12" cy="221.75" r="4.83"/>
   <circle class="fil0 str4" cx="58.96" cy="287.64" r="4.83"/>
   <polyline class="fil0 str3" points="488.16,221.75 514.35,221.75 539.83,191.41 561.71,185.67 "/>
   <polyline class="fil0 str3" points="486.01,244.97 521.17,244.97 540.55,221.75 562.43,221.75 "/>
   <line class="fil0 str3" x1="547.72" y1="254.56" x2="585.4" y2= "254.56" />
   <polyline class="fil0 str3" points="480.63,265.05 515.79,265.05 533.73,287.64 560.28,287.64 "/>
   <polyline class="fil0 str3" points="475.35,287.64 499.78,287.64 529.52,320.17 546.97,322.54 "/>
   <circle class="fil0 str1" cx="573.01" cy="182.96" r="4.83"/>
   <circle class="fil0 str1" cx="598.75" cy="254.56" r="4.83"/>
   <circle class="fil0 str1" cx="559.75" cy="324.33" r="4.83"/>
   <circle class="fil0 str4" cx="571.35" cy="221.75" r="4.83"/>
   <circle class="fil0 str4" cx="569.51" cy="287.64" r="4.83"/>
  </g>
  <rect class="fil0" width="628.47" height="483.44"/>
 </g>
</svg>
