<?xml version="1.0" encoding="UTF-8"?>
<!DOCTYPE svg PUBLIC "-//W3C//DTD SVG 1.1//EN" "http://www.w3.org/Graphics/SVG/1.1/DTD/svg11.dtd">
<!-- Creator: CorelDRAW -->
<svg xmlns="http://www.w3.org/2000/svg" xml:space="preserve" width="130mm" height="100mm" version="1.1" style="shape-rendering:geometricPrecision; text-rendering:geometricPrecision; image-rendering:optimizeQuality; fill-rule:evenodd; clip-rule:evenodd"
viewBox="0 0 506.78 389.83"
 xmlns:xlink="http://www.w3.org/1999/xlink"
 xmlns:xodm="http://www.corel.com/coreldraw/odm/2003">
 <defs>
  <style type="text/css">
   <![CDATA[
    .str0 {stroke:#FFED00;stroke-width:5.85;stroke-miterlimit:22.9256}
    .str1 {stroke:#00A0E3;stroke-width:5.85;stroke-miterlimit:22.9256}
    .fil0 {fill:none}
    .fil2 {fill:#FFED00}
    .fil1 {fill:#00A0E3}
   ]]>
  </style>
 </defs>
 <g id="Layer_x0020_1">
  <metadata id="CorelCorpID_0Corel-Layer"/>
  <g id="_2063336886752">
   <rect class="fil0 str0" x="229.29" y="170.76" width="46.78" height="46.78" rx="5.08" ry="5.28"/>
   <rect class="fil0 str1" x="198.84" y="140.31" width="107.68" height="107.68" rx="12.03" ry="12.52"/>
   <rect class="fil0 str1" x="167.98" y="109.46" width="169.39" height="169.39" rx="24.65" ry="25.65"/>
   <rect class="fil1" x="144.46" y="191.23" width="23.52" height="5.85"/>
   <rect class="fil1" x="144.46" y="165.84" width="23.52" height="5.85"/>
   <rect class="fil1" x="144.46" y="136.74" width="23.52" height="5.85"/>
   <rect class="fil1" x="144.46" y="153.68" width="11.76" height="2.92"/>
   <rect class="fil1" x="144.46" y="216.61" width="23.52" height="5.85"/>
   <rect class="fil1" x="144.46" y="245.72" width="23.52" height="5.85"/>
   <rect class="fil1" x="144.46" y="231.7" width="11.76" height="2.92"/>
   <rect class="fil1" x="337.37" y="191.23" width="23.52" height="5.85"/>
   <rect class="fil1" x="337.37" y="165.84" width="23.52" height="5.85"/>
   <rect class="fil1" x="337.37" y="136.74" width="23.52" height="5.85"/>
   <rect class="fil1" x="349.13" y="153.68" width="11.76" height="2.92"/>
   <rect class="fil1" x="337.37" y="216.61" width="23.52" height="5.85"/>
   <rect class="fil1" x="337.37" y="245.72" width="23.52" height="5.85"/>
   <rect class="fil1" x="349.13" y="231.7" width="11.76" height="2.92"/>
   <rect class="fil1" transform="matrix(-2.64845E-14 1 -1.00752 -2.66838E-14 255.602 85.9366)" width="23.52" height="5.8"/>
   <rect class="fil1" transform="matrix(-2.64845E-14 1 -1.00752 -2.66838E-14 280.987 85.9366)" width="23.52" height="5.8"/>
   <rect class="fil1" transform="matrix(-2.64845E-14 1 -1.00752 -2.66838E-14 310.091 85.9366)" width="23.52" height="5.8"/>
   <rect class="fil1" transform="matrix(-1.32421E-14 0.499992 -0.503761 -1.33419E-14 293.153 85.9367)" width="23.52" height="5.8"/>
   <rect class="fil1" transform="matrix(-2.64845E-14 1 1.00752 2.66838E-14 224.369 85.9366)" width="23.52" height="5.8"/>
   <rect class="fil1" transform="matrix(-2.64845E-14 1 1.00752 2.66838E-14 195.264 85.9366)" width="23.52" height="5.8"/>
   <rect class="fil1" transform="matrix(-1.32421E-14 0.499992 0.503761 1.33419E-14 212.203 85.9367)" width="23.52" height="5.8"/>
   <rect class="fil1" transform="matrix(-2.64845E-14 -1 -1.00752 2.66838E-14 255.602 302.37)" width="23.52" height="5.8"/>
   <rect class="fil1" transform="matrix(-2.64845E-14 -1 -1.00752 2.66838E-14 280.987 302.37)" width="23.52" height="5.8"/>
   <rect class="fil1" transform="matrix(-2.64845E-14 -1 -1.00752 2.66838E-14 310.091 302.37)" width="23.52" height="5.8"/>
   <rect class="fil1" transform="matrix(-1.32421E-14 -0.499992 -0.503761 1.33419E-14 293.153 302.37)" width="23.52" height="5.8"/>
   <rect class="fil1" transform="matrix(-2.64845E-14 -1 1.00752 -2.66838E-14 224.369 302.37)" width="23.52" height="5.8"/>
   <rect class="fil1" transform="matrix(-2.64845E-14 -1 1.00752 -2.66838E-14 195.264 302.37)" width="23.52" height="5.8"/>
   <rect class="fil1" transform="matrix(-1.32421E-14 -0.499992 0.503761 -1.33419E-14 212.203 302.37)" width="23.52" height="5.8"/>
   <polyline class="fil0 str1" points="114.67,194.15 87.45,204.08 56.44,204.08 "/>
   <polyline class="fil0 str1" points="132.18,168.77 102.5,168.77 81.85,141.73 56.44,133.63 "/>
   <polyline class="fil0 str1" points="132.18,219.54 102.5,219.54 81.85,246.57 56.44,254.68 "/>
   <circle class="fil2" cx="56.44" cy="133.63" r="7.8"/>
   <circle class="fil2" cx="56.44" cy="204.08" r="7.8"/>
   <circle class="fil2" cx="56.44" cy="254.68" r="7.8"/>
   <polyline class="fil0 str1" points="392.12,194.15 419.34,204.08 450.35,204.08 "/>
   <polyline class="fil0 str1" points="374.6,168.77 404.28,168.77 424.93,141.73 450.35,133.63 "/>
   <polyline class="fil0 str1" points="374.6,219.54 404.28,219.54 424.93,246.57 450.35,254.68 "/>
   <circle class="fil2" cx="450.35" cy="133.63" r="7.8"/>
   <circle class="fil2" cx="450.35" cy="204.08" r="7.8"/>
   <circle class="fil2" cx="450.35" cy="254.68" r="7.8"/>
   <polyline class="fil0 str1" points="178.46,32.15 178.46,62.6 198.19,79.39 "/>
   <polyline class="fil0 str1" points="326.9,32.15 326.9,62.6 307.17,79.39 "/>
   <line class="fil0 str1" x1="252.68" y1="32.15" x2="252.68" y2= "62.6" />
   <circle class="fil2" cx="178.46" cy="32.15" r="7.8"/>
   <circle class="fil2" cx="252.68" cy="32.15" r="7.8"/>
   <circle class="fil2" cx="326.9" cy="32.15" r="7.8"/>
   <polyline class="fil0 str1" points="178.46,357.68 178.46,327.24 198.19,310.44 "/>
   <polyline class="fil0 str1" points="326.9,357.68 326.9,327.24 307.17,310.44 "/>
   <line class="fil0 str1" x1="252.68" y1="357.68" x2="252.68" y2= "327.24" />
   <circle class="fil2" cx="178.46" cy="357.68" r="7.8"/>
   <circle class="fil2" cx="252.68" cy="357.68" r="7.8"/>
   <circle class="fil2" cx="326.9" cy="357.68" r="7.8"/>
  </g>
  <rect class="fil0" width="506.78" height="389.83"/>
 </g>
</svg>
